<mxfile host="65bd71144e">
    <diagram id="Gu9yiPsr20Evu2xUfCsn" name="Homepage">
        <mxGraphModel dx="1118" dy="790" grid="1" gridSize="10" guides="1" tooltips="1" connect="1" arrows="1" fold="1" page="1" pageScale="1" pageWidth="850" pageHeight="1100" math="0" shadow="0">
            <root>
                <mxCell id="0"/>
                <mxCell id="1" parent="0"/>
                <mxCell id="2" value="" style="strokeWidth=1;shadow=0;dashed=0;align=center;html=1;shape=mxgraph.mockup.containers.browserWindow;rSize=0;strokeColor=#666666;strokeColor2=#008cff;strokeColor3=#c4c4c4;mainText=,;recursiveResize=0;" parent="1" vertex="1">
                    <mxGeometry x="40" y="40" width="770" height="1020" as="geometry"/>
                </mxCell>
                <mxCell id="22" value="" style="rounded=0;whiteSpace=wrap;html=1;" parent="2" vertex="1">
                    <mxGeometry y="700" width="380" height="260" as="geometry"/>
                </mxCell>
                <mxCell id="3" value="Homepage" style="strokeWidth=1;shadow=0;dashed=0;align=center;html=1;shape=mxgraph.mockup.containers.anchor;fontSize=17;fontColor=#666666;align=left;" parent="2" vertex="1">
                    <mxGeometry x="60" y="12" width="110" height="26" as="geometry"/>
                </mxCell>
                <mxCell id="4" value="https://www.draw.io" style="strokeWidth=1;shadow=0;dashed=0;align=center;html=1;shape=mxgraph.mockup.containers.anchor;rSize=0;fontSize=17;fontColor=#666666;align=left;" parent="2" vertex="1">
                    <mxGeometry x="130" y="60" width="250" height="26" as="geometry"/>
                </mxCell>
                <mxCell id="5" value="" style="rounded=0;whiteSpace=wrap;html=1;" parent="2" vertex="1">
                    <mxGeometry y="110" width="770" height="60" as="geometry"/>
                </mxCell>
                <mxCell id="6" value="banner" style="rounded=0;whiteSpace=wrap;html=1;" parent="2" vertex="1">
                    <mxGeometry y="170" width="770" height="280" as="geometry"/>
                </mxCell>
                <mxCell id="7" value="" style="rounded=0;whiteSpace=wrap;html=1;" parent="2" vertex="1">
                    <mxGeometry x="520" y="450" width="250" height="250" as="geometry"/>
                </mxCell>
                <mxCell id="8" value="" style="rounded=0;whiteSpace=wrap;html=1;" parent="2" vertex="1">
                    <mxGeometry y="450" width="250" height="250" as="geometry"/>
                </mxCell>
                <mxCell id="9" value="" style="rounded=0;whiteSpace=wrap;html=1;" parent="2" vertex="1">
                    <mxGeometry x="250" y="450" width="270" height="250" as="geometry"/>
                </mxCell>
                <mxCell id="10" value="page 1" style="rounded=1;whiteSpace=wrap;html=1;" parent="2" vertex="1">
                    <mxGeometry x="70" y="110" width="140" height="60" as="geometry"/>
                </mxCell>
                <mxCell id="11" value="page 2" style="rounded=1;whiteSpace=wrap;html=1;" parent="2" vertex="1">
                    <mxGeometry x="210" y="110" width="140" height="60" as="geometry"/>
                </mxCell>
                <mxCell id="12" value="page 3" style="rounded=1;whiteSpace=wrap;html=1;" parent="2" vertex="1">
                    <mxGeometry x="350" y="110" width="140" height="60" as="geometry"/>
                </mxCell>
                <mxCell id="13" value="page 4" style="rounded=1;whiteSpace=wrap;html=1;" parent="2" vertex="1">
                    <mxGeometry x="490" y="110" width="140" height="60" as="geometry"/>
                </mxCell>
                <mxCell id="14" value="contact us" style="rounded=1;whiteSpace=wrap;html=1;" parent="2" vertex="1">
                    <mxGeometry x="630" y="110" width="140" height="60" as="geometry"/>
                </mxCell>
                <mxCell id="15" value="home" style="rounded=1;whiteSpace=wrap;html=1;" parent="2" vertex="1">
                    <mxGeometry y="110" width="70" height="60" as="geometry"/>
                </mxCell>
                <mxCell id="16" value="" style="verticalLabelPosition=bottom;shadow=0;dashed=0;align=center;html=1;verticalAlign=top;strokeWidth=1;shape=mxgraph.mockup.graphics.simpleIcon;strokeColor=#999999;" parent="2" vertex="1">
                    <mxGeometry x="15" y="465" width="220" height="220" as="geometry"/>
                </mxCell>
                <mxCell id="17" value="" style="verticalLabelPosition=bottom;shadow=0;dashed=0;align=center;html=1;verticalAlign=top;strokeWidth=1;shape=mxgraph.mockup.graphics.simpleIcon;strokeColor=#999999;" parent="2" vertex="1">
                    <mxGeometry x="275" y="465" width="220" height="220" as="geometry"/>
                </mxCell>
                <mxCell id="18" value="" style="verticalLabelPosition=bottom;shadow=0;dashed=0;align=center;html=1;verticalAlign=top;strokeWidth=1;shape=mxgraph.mockup.graphics.simpleIcon;strokeColor=#999999;" parent="2" vertex="1">
                    <mxGeometry x="535" y="465" width="220" height="220" as="geometry"/>
                </mxCell>
                <mxCell id="20" value="footer" style="rounded=0;whiteSpace=wrap;html=1;" parent="2" vertex="1">
                    <mxGeometry y="960" width="770" height="60" as="geometry"/>
                </mxCell>
                <mxCell id="21" value="&lt;h1&gt;Heading&lt;/h1&gt;&lt;p&gt;Lorem ipsum dolor sit amet, consectetur adipisicing elit, sed do eiusmod tempor incididunt ut labore et dolore magna aliqua.&lt;/p&gt;" style="text;html=1;strokeColor=none;fillColor=none;spacing=5;spacingTop=-20;whiteSpace=wrap;overflow=hidden;rounded=0;" parent="2" vertex="1">
                    <mxGeometry x="95" y="770" width="190" height="120" as="geometry"/>
                </mxCell>
                <mxCell id="23" value="" style="rounded=0;whiteSpace=wrap;html=1;" parent="2" vertex="1">
                    <mxGeometry x="380" y="700" width="390" height="260" as="geometry"/>
                </mxCell>
                <mxCell id="24" value="&lt;h1&gt;Heading&lt;/h1&gt;&lt;p&gt;Lorem ipsum dolor sit amet, consectetur adipisicing elit, sed do eiusmod tempor incididunt ut labore et dolore magna aliqua.&lt;/p&gt;" style="text;html=1;strokeColor=none;fillColor=none;spacing=5;spacingTop=-20;whiteSpace=wrap;overflow=hidden;rounded=0;" parent="2" vertex="1">
                    <mxGeometry x="485" y="770" width="190" height="120" as="geometry"/>
                </mxCell>
            </root>
        </mxGraphModel>
    </diagram>
    <diagram name="Page 1" id="X5JVdQvxAdxjBUUpmmMG">
        <mxGraphModel dx="1118" dy="790" grid="1" gridSize="10" guides="1" tooltips="1" connect="1" arrows="1" fold="1" page="1" pageScale="1" pageWidth="850" pageHeight="1100" math="0" shadow="0">
            <root>
                <mxCell id="rK45vIgpD9ts0oFZKHb2-0"/>
                <mxCell id="rK45vIgpD9ts0oFZKHb2-1" parent="rK45vIgpD9ts0oFZKHb2-0"/>
                <mxCell id="rK45vIgpD9ts0oFZKHb2-2" value="" style="strokeWidth=1;shadow=0;dashed=0;align=center;html=1;shape=mxgraph.mockup.containers.browserWindow;rSize=0;strokeColor=#666666;strokeColor2=#008cff;strokeColor3=#c4c4c4;mainText=,;recursiveResize=0;" parent="rK45vIgpD9ts0oFZKHb2-1" vertex="1">
                    <mxGeometry x="40" y="40" width="770" height="1020" as="geometry"/>
                </mxCell>
                <mxCell id="rK45vIgpD9ts0oFZKHb2-3" value="" style="rounded=0;whiteSpace=wrap;html=1;" parent="rK45vIgpD9ts0oFZKHb2-2" vertex="1">
                    <mxGeometry y="700" width="380" height="260" as="geometry"/>
                </mxCell>
                <mxCell id="rK45vIgpD9ts0oFZKHb2-4" value="Page 1" style="strokeWidth=1;shadow=0;dashed=0;align=center;html=1;shape=mxgraph.mockup.containers.anchor;fontSize=17;fontColor=#666666;align=left;" parent="rK45vIgpD9ts0oFZKHb2-2" vertex="1">
                    <mxGeometry x="60" y="12" width="110" height="26" as="geometry"/>
                </mxCell>
                <mxCell id="rK45vIgpD9ts0oFZKHb2-5" value="https://www.draw.io" style="strokeWidth=1;shadow=0;dashed=0;align=center;html=1;shape=mxgraph.mockup.containers.anchor;rSize=0;fontSize=17;fontColor=#666666;align=left;" parent="rK45vIgpD9ts0oFZKHb2-2" vertex="1">
                    <mxGeometry x="130" y="60" width="250" height="26" as="geometry"/>
                </mxCell>
                <mxCell id="rK45vIgpD9ts0oFZKHb2-6" value="" style="rounded=0;whiteSpace=wrap;html=1;" parent="rK45vIgpD9ts0oFZKHb2-2" vertex="1">
                    <mxGeometry y="110" width="770" height="60" as="geometry"/>
                </mxCell>
                <mxCell id="rK45vIgpD9ts0oFZKHb2-7" value="banner" style="rounded=0;whiteSpace=wrap;html=1;" parent="rK45vIgpD9ts0oFZKHb2-2" vertex="1">
                    <mxGeometry y="170" width="770" height="280" as="geometry"/>
                </mxCell>
                <mxCell id="rK45vIgpD9ts0oFZKHb2-8" value="" style="rounded=0;whiteSpace=wrap;html=1;" parent="rK45vIgpD9ts0oFZKHb2-2" vertex="1">
                    <mxGeometry x="520" y="450" width="250" height="250" as="geometry"/>
                </mxCell>
                <mxCell id="rK45vIgpD9ts0oFZKHb2-9" value="" style="rounded=0;whiteSpace=wrap;html=1;" parent="rK45vIgpD9ts0oFZKHb2-2" vertex="1">
                    <mxGeometry y="450" width="250" height="250" as="geometry"/>
                </mxCell>
                <mxCell id="rK45vIgpD9ts0oFZKHb2-10" value="" style="rounded=0;whiteSpace=wrap;html=1;" parent="rK45vIgpD9ts0oFZKHb2-2" vertex="1">
                    <mxGeometry x="250" y="450" width="270" height="250" as="geometry"/>
                </mxCell>
                <mxCell id="rK45vIgpD9ts0oFZKHb2-11" value="page 1" style="rounded=1;whiteSpace=wrap;html=1;" parent="rK45vIgpD9ts0oFZKHb2-2" vertex="1">
                    <mxGeometry x="70" y="110" width="140" height="60" as="geometry"/>
                </mxCell>
                <mxCell id="rK45vIgpD9ts0oFZKHb2-12" value="page 2" style="rounded=1;whiteSpace=wrap;html=1;" parent="rK45vIgpD9ts0oFZKHb2-2" vertex="1">
                    <mxGeometry x="210" y="110" width="140" height="60" as="geometry"/>
                </mxCell>
                <mxCell id="rK45vIgpD9ts0oFZKHb2-13" value="page 3" style="rounded=1;whiteSpace=wrap;html=1;" parent="rK45vIgpD9ts0oFZKHb2-2" vertex="1">
                    <mxGeometry x="350" y="110" width="140" height="60" as="geometry"/>
                </mxCell>
                <mxCell id="rK45vIgpD9ts0oFZKHb2-14" value="page 4" style="rounded=1;whiteSpace=wrap;html=1;" parent="rK45vIgpD9ts0oFZKHb2-2" vertex="1">
                    <mxGeometry x="490" y="110" width="140" height="60" as="geometry"/>
                </mxCell>
                <mxCell id="rK45vIgpD9ts0oFZKHb2-15" value="contact us" style="rounded=1;whiteSpace=wrap;html=1;" parent="rK45vIgpD9ts0oFZKHb2-2" vertex="1">
                    <mxGeometry x="630" y="110" width="140" height="60" as="geometry"/>
                </mxCell>
                <mxCell id="rK45vIgpD9ts0oFZKHb2-16" value="home" style="rounded=1;whiteSpace=wrap;html=1;" parent="rK45vIgpD9ts0oFZKHb2-2" vertex="1">
                    <mxGeometry y="110" width="70" height="60" as="geometry"/>
                </mxCell>
                <mxCell id="rK45vIgpD9ts0oFZKHb2-17" value="" style="verticalLabelPosition=bottom;shadow=0;dashed=0;align=center;html=1;verticalAlign=top;strokeWidth=1;shape=mxgraph.mockup.graphics.simpleIcon;strokeColor=#999999;" parent="rK45vIgpD9ts0oFZKHb2-2" vertex="1">
                    <mxGeometry x="15" y="465" width="220" height="220" as="geometry"/>
                </mxCell>
                <mxCell id="rK45vIgpD9ts0oFZKHb2-18" value="" style="verticalLabelPosition=bottom;shadow=0;dashed=0;align=center;html=1;verticalAlign=top;strokeWidth=1;shape=mxgraph.mockup.graphics.simpleIcon;strokeColor=#999999;" parent="rK45vIgpD9ts0oFZKHb2-2" vertex="1">
                    <mxGeometry x="275" y="465" width="220" height="220" as="geometry"/>
                </mxCell>
                <mxCell id="rK45vIgpD9ts0oFZKHb2-19" value="" style="verticalLabelPosition=bottom;shadow=0;dashed=0;align=center;html=1;verticalAlign=top;strokeWidth=1;shape=mxgraph.mockup.graphics.simpleIcon;strokeColor=#999999;" parent="rK45vIgpD9ts0oFZKHb2-2" vertex="1">
                    <mxGeometry x="535" y="465" width="220" height="220" as="geometry"/>
                </mxCell>
                <mxCell id="rK45vIgpD9ts0oFZKHb2-20" value="footer" style="rounded=0;whiteSpace=wrap;html=1;" parent="rK45vIgpD9ts0oFZKHb2-2" vertex="1">
                    <mxGeometry y="960" width="770" height="60" as="geometry"/>
                </mxCell>
                <mxCell id="rK45vIgpD9ts0oFZKHb2-21" value="&lt;h1&gt;Heading&lt;/h1&gt;&lt;p&gt;Lorem ipsum dolor sit amet, consectetur adipisicing elit, sed do eiusmod tempor incididunt ut labore et dolore magna aliqua.&lt;/p&gt;" style="text;html=1;strokeColor=none;fillColor=none;spacing=5;spacingTop=-20;whiteSpace=wrap;overflow=hidden;rounded=0;" parent="rK45vIgpD9ts0oFZKHb2-2" vertex="1">
                    <mxGeometry x="95" y="770" width="190" height="120" as="geometry"/>
                </mxCell>
                <mxCell id="rK45vIgpD9ts0oFZKHb2-22" value="" style="rounded=0;whiteSpace=wrap;html=1;" parent="rK45vIgpD9ts0oFZKHb2-2" vertex="1">
                    <mxGeometry x="380" y="700" width="390" height="260" as="geometry"/>
                </mxCell>
                <mxCell id="rK45vIgpD9ts0oFZKHb2-23" value="&lt;h1&gt;Heading&lt;/h1&gt;&lt;p&gt;Lorem ipsum dolor sit amet, consectetur adipisicing elit, sed do eiusmod tempor incididunt ut labore et dolore magna aliqua.&lt;/p&gt;" style="text;html=1;strokeColor=none;fillColor=none;spacing=5;spacingTop=-20;whiteSpace=wrap;overflow=hidden;rounded=0;" parent="rK45vIgpD9ts0oFZKHb2-2" vertex="1">
                    <mxGeometry x="485" y="770" width="190" height="120" as="geometry"/>
                </mxCell>
            </root>
        </mxGraphModel>
    </diagram>
</mxfile>